####
#
# OBJ File Generated by Meshlab
#
####
# Object cone.obj
#
# Vertices: 74
# Faces: 144
#
####
mtllib ./cone.obj.mtl

vn -0.2500000 -0.8660254 -0.4330127
v -0.3750000 -1.2990381 -0.6495190
vn 0.2500000 0.8660254 0.4330127
v 0.3750000 1.2990381 0.6495190
vn 0.6792157 -0.4065503 -0.6110506
v 0.4910254 -1.2990381 -1.1495190
vn 0.7285224 -0.4838518 -0.4849150
v 0.5530604 -1.3858621 -1.0116868
vn 0.7522989 -0.5582106 -0.3499247
v 0.5868967 -1.4700482 -0.8628502
vn 0.7498226 -0.6273672 -0.2101818
v 0.5915064 -1.5490381 -0.7075318
vn 0.7211689 -0.6892205 -0.0699320
v 0.5667492 -1.6204319 -0.5504506
vn 0.6672083 -0.7418911 0.0665634
v 0.5133774 -1.6820602 -0.3963795
vn 0.5895805 -0.7837785 0.1951566
v 0.4330127 -1.7320508 -0.2500000
vn 0.4906440 -0.8136101 0.3119409
v 0.3280970 -1.7688844 -0.1157597
vn 0.3734052 -0.8304794 0.4133673
v 0.2018180 -1.7914419 0.0022626
vn 0.2414260 -0.8338739 0.4963546
v 0.0580127 -1.7990381 0.1004809
vn 0.0987168 -0.8236905 0.5583807
v -0.0989495 -1.7914419 0.1759108
vn -0.0503865 -0.8002384 0.5975615
v -0.2642993 -1.7688844 0.2262605
vn -0.2013531 -0.7642304 0.6127062
v -0.4330127 -1.7320508 0.2500000
vn -0.3495963 -0.7167606 0.6033546
v -0.5999634 -1.6820602 0.2464081
vn -0.4906118 -0.6592711 0.5697910
v -0.7600787 -1.6204319 0.2155939
vn -0.6201146 -0.5935089 0.5130352
v -0.9084936 -1.5490381 0.1584936
vn -0.7341702 -0.5214720 0.4348115
v -1.0406985 -1.4700482 0.0768424
vn -0.8293127 -0.4453496 0.3374971
v -1.1526766 -1.3858621 -0.0268791
vn -0.9026515 -0.3674541 0.2240484
v -1.2410254 -1.2990381 -0.1495190
vn -0.9519582 -0.2901527 0.0979128
v -1.3030603 -1.2122140 -0.2873513
vn -0.9757348 -0.2157939 -0.0370775
v -1.3368967 -1.1280279 -0.4361878
vn -0.9732585 -0.1466372 -0.1768204
v -1.3415064 -1.0490381 -0.5915064
vn -0.9446048 -0.0847839 -0.3170702
v -1.3167491 -0.9776442 -0.7485876
vn -0.8906442 -0.0321133 -0.4535656
v -1.2633774 -0.9160159 -0.9026586
vn -0.8130163 0.0097741 -0.5821589
v -1.1830127 -0.8660253 -1.0490381
vn -0.7140798 0.0396057 -0.6989431
v -1.0780970 -0.8291917 -1.1832786
vn -0.5968410 0.0564750 -0.8003696
v -0.9518180 -0.8066342 -1.3013008
vn -0.4648618 0.0598695 -0.8833568
v -0.8080127 -0.7990381 -1.3995191
vn -0.3221527 0.0496860 -0.9453830
v -0.6510506 -0.8066342 -1.4749489
vn -0.1730494 0.0262339 -0.9845638
v -0.4857007 -0.8291917 -1.5252986
vn -0.0220828 -0.0097741 -0.9997084
v -0.3169873 -0.8660253 -1.5490381
vn 0.1261605 -0.0572439 -0.9903569
v -0.1500366 -0.9160159 -1.5454463
vn 0.2671759 -0.1147334 -0.9567933
v 0.0100787 -0.9776442 -1.5146320
vn 0.3966787 -0.1804955 -0.9000374
v 0.1584936 -1.0490381 -1.4575318
vn 0.5107343 -0.2525323 -0.8218138
v 0.2906986 -1.1280279 -1.3758805
vn 0.6058768 -0.3286549 -0.7244993
v 0.4026766 -1.2122140 -1.2721591
vn 0.8906761 0.1783943 -0.4181765
v 2.1070509 1.2990381 -0.3504810
vn 0.9541903 0.0931384 -0.2843347
v 2.2311206 1.1253898 -0.0748165
vn 0.9902013 0.0102125 -0.1392737
v 2.2987933 0.9570179 0.2228566
vn 0.9976150 -0.0678640 0.0125989
v 2.3080127 0.7990381 0.5334937
vn 0.9762063 -0.1387187 0.1666686
v 2.2584982 0.6562504 0.8476561
vn 0.9266255 -0.2001987 0.3182542
v 2.1517549 0.5329936 1.1557982
vn 0.8503791 -0.2504359 0.4627496
v 1.9910254 0.4330127 1.4485571
vn 0.7497839 -0.2879041 0.5957645
v 1.7811940 0.3593454 1.7170378
vn 0.6278965 -0.3114646 0.7132572
v 1.5286360 0.3142303 1.9530826
vn 0.4884203 -0.3204016 0.8116579
v 1.2410254 0.2990381 2.1495192
vn 0.3355930 -0.3144436 0.8879766
v 0.9271011 0.3142303 2.3003788
vn 0.1740585 -0.2937717 0.9398946
v 0.5964015 0.3593454 2.4010782
vn 0.0087249 -0.2590137 0.9658343
v 0.2589746 0.4330127 2.4485571
vn -0.1553844 -0.2112260 0.9650074
v -0.0749269 0.5329936 2.4413733
vn -0.3132829 -0.1518605 0.9374392
v -0.3951575 0.6562504 2.3797450
vn -0.4601730 -0.0827210 0.8839672
v -0.6919873 0.7990381 2.2655444
vn -0.5915915 -0.0059082 0.8062162
v -0.9563972 0.9570179 2.1022420
vn -0.7035452 0.0762437 0.7065488
v -1.1803533 1.1253898 1.8947990
vn -0.7926325 0.1612389 0.5879931
v -1.3570508 1.2990381 1.6495190
vn -0.8561466 0.2464947 0.4541513
v -1.4811207 1.4726863 1.3738545
vn -0.8921576 0.3294207 0.3090903
v -1.5487934 1.6410582 1.0761814
vn -0.8995714 0.4074972 0.1572177
v -1.5580127 1.7990381 0.7655445
vn -0.8781627 0.4783518 0.0031480
v -1.5084983 1.9418256 0.4513820
vn -0.8285818 0.5398319 -0.1484375
v -1.4017549 2.0650826 0.1432400
vn -0.7523354 0.5900692 -0.2929329
v -1.2410254 2.1650634 -0.1495190
vn -0.6517403 0.6275373 -0.4259478
v -1.0311940 2.2387307 -0.4179997
vn -0.5298529 0.6510978 -0.5434406
v -0.7786360 2.2838459 -0.6540443
vn -0.3903766 0.6600348 -0.6418413
v -0.4910254 2.2990379 -0.8504809
vn -0.2375494 0.6540768 -0.7181602
v -0.1771010 2.2838459 -1.0013406
vn -0.0760149 0.6334047 -0.7700781
v 0.1535986 2.2387307 -1.1020401
vn 0.0893188 0.5986469 -0.7960176
v 0.4910254 2.1650634 -1.1495190
vn 0.2534280 0.5508592 -0.7951909
v 0.8249269 2.0650826 -1.1423352
vn 0.4113266 0.4914937 -0.7676226
v 1.1451575 1.9418256 -1.0807068
vn 0.5582167 0.4223542 -0.7141506
v 1.4419873 1.7990381 -0.9665063
vn 0.6896352 0.3455415 -0.6363996
v 1.7063972 1.6410582 -0.8032038
vn 0.8015888 0.2633894 -0.5367322
v 1.9303533 1.4726863 -0.5957609
# 74 vertices, 0 vertices normals


usemtl material_0
vt 0.9351424 0.3134766
vt 0.8759766 0.3726424
vt 0.8759766 0.3134766
f 1/1/1 3/2/3 4/3/4
vt 0.9351424 0.3115234
vt 0.8759766 0.3115234
vt 0.8759766 0.2523576
f 1/4/1 4/5/4 5/6/5
vt 0.9976424 0.3740234
vt 0.9384766 0.3740234
vt 0.9384766 0.3148576
f 1/7/1 5/8/5 6/9/6
vt 0.9365234 0.3148576
vt 0.9365234 0.3740234
vt 0.8773576 0.3740234
f 1/10/1 6/11/6 7/12/7
vt 0.9990234 0.2523576
vt 0.9990234 0.3115234
vt 0.9398576 0.3115234
f 1/13/1 7/14/7 8/15/8
vt 0.9398576 0.3134766
vt 0.9990234 0.3134766
vt 0.9990234 0.3726424
f 1/16/1 8/17/8 9/18/9
vt 0.8773576 0.2509766
vt 0.9365234 0.2509766
vt 0.9365234 0.3101424
f 1/19/1 9/20/9 10/21/10
vt 0.9976424 0.2509766
vt 0.9384766 0.3101424
vt 0.9384766 0.2509766
f 1/22/1 10/23/10 11/24/11
vt 0.0009766 0.2476424
vt 0.0009766 0.1884766
vt 0.0601424 0.1884766
f 1/25/1 11/26/11 12/27/12
vt 0.0009766 0.1273576
vt 0.0601424 0.1865234
vt 0.0009766 0.1865234
f 1/28/1 12/29/12 13/30/13
vt 0.1226424 0.2490234
vt 0.0634766 0.2490234
vt 0.0634766 0.1898576
f 1/31/1 13/32/13 14/33/14
vt 0.0615234 0.1898576
vt 0.0615234 0.2490234
vt 0.0023576 0.2490234
f 1/34/1 14/35/14 15/36/15
vt 0.1240234 0.1273576
vt 0.1240234 0.1865234
vt 0.0648576 0.1865234
f 1/37/1 15/38/15 16/39/16
vt 0.0648576 0.1884766
vt 0.1240234 0.1884766
vt 0.1240234 0.2476424
f 1/40/1 16/41/16 17/42/17
vt 0.0023576 0.1259766
vt 0.0615234 0.1259766
vt 0.0615234 0.1851424
f 1/43/1 17/44/17 18/45/18
vt 0.0634766 0.1851424
vt 0.0634766 0.1259766
vt 0.1226424 0.1259766
f 1/46/1 18/47/18 19/48/19
vt 0.1851424 0.1884766
vt 0.1259766 0.2476424
vt 0.1259766 0.1884766
f 1/49/1 19/50/19 20/51/20
vt 0.1851424 0.1865234
vt 0.1259766 0.1865234
vt 0.1259766 0.1273576
f 1/52/1 20/53/20 21/54/21
vt 0.1884766 0.1898576
vt 0.2476424 0.2490234
vt 0.1884766 0.2490234
f 1/55/1 21/56/21 22/57/22
vt 0.1865234 0.1898576
vt 0.1865234 0.2490234
vt 0.1273576 0.2490234
f 1/58/1 22/59/22 23/60/23
vt 0.2490234 0.1273576
vt 0.2490234 0.1865234
vt 0.1898576 0.1865234
f 1/61/1 23/62/23 24/63/24
vt 0.1898576 0.1884766
vt 0.2490234 0.1884766
vt 0.2490234 0.2476424
f 1/64/1 24/65/24 25/66/25
vt 0.1273576 0.1259766
vt 0.1865234 0.1259766
vt 0.1865234 0.1851424
f 1/67/1 25/68/25 26/69/26
vt 0.1884766 0.1851424
vt 0.1884766 0.1259766
vt 0.2476424 0.1259766
f 1/70/1 26/71/26 27/72/27
vt 0.2509766 0.2476424
vt 0.2509766 0.1884766
vt 0.3101424 0.1884766
f 1/73/1 27/74/27 28/75/28
vt 0.2509766 0.1273576
vt 0.3101424 0.1865234
vt 0.2509766 0.1865234
f 1/76/1 28/77/28 29/78/29
vt 0.3726424 0.2490234
vt 0.3134766 0.2490234
vt 0.3134766 0.1898576
f 1/79/1 29/80/29 30/81/30
vt 0.2523576 0.2490234
vt 0.3115234 0.1898576
vt 0.3115234 0.2490234
f 1/82/1 30/83/30 31/84/31
vt 0.3740234 0.1273576
vt 0.3740234 0.1865234
vt 0.3148576 0.1865234
f 1/85/1 31/86/31 32/87/32
vt 0.3148576 0.1884766
vt 0.3740234 0.1884766
vt 0.3740234 0.2476424
f 1/88/1 32/89/32 33/90/33
vt 0.2523576 0.1259766
vt 0.3115234 0.1259766
vt 0.3115234 0.1851424
f 1/91/1 33/92/33 34/93/34
vt 0.3134766 0.1851424
vt 0.3134766 0.1259766
vt 0.3726424 0.1259766
f 1/94/1 34/95/34 35/96/35
vt 0.3759766 0.2476424
vt 0.3759766 0.1884766
vt 0.4351424 0.1884766
f 1/97/1 35/98/35 36/99/36
vt 0.4351424 0.1865234
vt 0.3759766 0.1865234
vt 0.3759766 0.1273576
f 1/100/1 36/101/36 37/102/37
vt 0.4384766 0.1898576
vt 0.4976424 0.2490234
vt 0.4384766 0.2490234
f 1/103/1 37/104/37 38/105/38
vt 0.4365234 0.1898576
vt 0.4365234 0.2490234
vt 0.3773576 0.2490234
f 1/106/1 38/107/38 3/108/3
vt 0.1226424 0.9990234
vt 0.0009766 0.9990234
vt 0.0009766 0.8773576
f 2/109/2 40/110/40 39/111/39
vt 0.1240234 0.9976424
vt 0.0023576 0.8759766
vt 0.1240234 0.8759766
f 2/112/2 41/113/41 40/114/40
vt 0.2476424 0.9990234
vt 0.1259766 0.9990234
vt 0.1259766 0.8773576
f 2/115/2 42/116/42 41/117/41
vt 0.1273576 0.8759766
vt 0.2490234 0.8759766
vt 0.2490234 0.9976424
f 2/118/2 43/119/43 42/120/42
vt 0.3726424 0.9990234
vt 0.2509766 0.9990234
vt 0.2509766 0.8773576
f 2/121/2 44/122/44 43/123/43
vt 0.2523576 0.8759766
vt 0.3740234 0.8759766
vt 0.3740234 0.9976424
f 2/124/2 45/125/45 44/126/44
vt 0.4976424 0.9990234
vt 0.3759766 0.9990234
vt 0.3759766 0.8773576
f 2/127/2 46/128/46 45/129/45
vt 0.3773576 0.8759766
vt 0.4990234 0.8759766
vt 0.4990234 0.9976424
f 2/130/2 47/131/47 46/132/46
vt 0.5009766 0.8773576
vt 0.6226424 0.9990234
vt 0.5009766 0.9990234
f 2/133/2 48/134/48 47/135/47
vt 0.5023576 0.8759766
vt 0.6240234 0.8759766
vt 0.6240234 0.9976424
f 2/136/2 49/137/49 48/138/48
vt 0.6259766 0.8773576
vt 0.7476424 0.9990234
vt 0.6259766 0.9990234
f 2/139/2 50/140/50 49/141/49
vt 0.6273576 0.8759766
vt 0.7490234 0.8759766
vt 0.7490234 0.9976424
f 2/142/2 51/143/51 50/144/50
vt 0.8726424 0.9990234
vt 0.7509766 0.9990234
vt 0.7509766 0.8773576
f 2/145/2 52/146/52 51/147/51
vt 0.7523576 0.8759766
vt 0.8740234 0.8759766
vt 0.8740234 0.9976424
f 2/148/2 53/149/53 52/150/52
vt 0.9976424 0.9990234
vt 0.8759766 0.9990234
vt 0.8759766 0.8773576
f 2/151/2 54/152/54 53/153/53
vt 0.8773576 0.8759766
vt 0.9990234 0.8759766
vt 0.9990234 0.9976424
f 2/154/2 55/155/55 54/156/54
vt 0.1226424 0.8740234
vt 0.0009766 0.8740234
vt 0.0009766 0.7523576
f 2/157/2 56/158/56 55/159/55
vt 0.1240234 0.8726424
vt 0.0023576 0.7509766
vt 0.1240234 0.7509766
f 2/160/2 57/161/57 56/162/56
vt 0.2476424 0.8740234
vt 0.1259766 0.8740234
vt 0.1259766 0.7523576
f 2/163/2 58/164/58 57/165/57
vt 0.2490234 0.8726424
vt 0.1273576 0.7509766
vt 0.2490234 0.7509766
f 2/166/2 59/167/59 58/168/58
vt 0.3726424 0.8740234
vt 0.2509766 0.8740234
vt 0.2509766 0.7523576
f 2/169/2 60/170/60 59/171/59
vt 0.2523576 0.7509766
vt 0.3740234 0.7509766
vt 0.3740234 0.8726424
f 2/172/2 61/173/61 60/174/60
vt 0.4976424 0.8740234
vt 0.3759766 0.8740234
vt 0.3759766 0.7523576
f 2/175/2 62/176/62 61/177/61
vt 0.3773576 0.7509766
vt 0.4990234 0.7509766
vt 0.4990234 0.8726424
f 2/178/2 63/179/63 62/180/62
vt 0.6226424 0.8740234
vt 0.5009766 0.8740234
vt 0.5009766 0.7523576
f 2/181/2 64/182/64 63/183/63
vt 0.5023576 0.7509766
vt 0.6240234 0.7509766
vt 0.6240234 0.8726424
f 2/184/2 65/185/65 64/186/64
vt 0.6259766 0.7523576
vt 0.7476424 0.8740234
vt 0.6259766 0.8740234
f 2/187/2 66/188/66 65/189/65
vt 0.6273576 0.7509766
vt 0.7490234 0.7509766
vt 0.7490234 0.8726424
f 2/190/2 67/191/67 66/192/66
vt 0.7509766 0.7523576
vt 0.8726424 0.8740234
vt 0.7509766 0.8740234
f 2/193/2 68/194/68 67/195/67
vt 0.7523576 0.7509766
vt 0.8740234 0.7509766
vt 0.8740234 0.8726424
f 2/196/2 69/197/69 68/198/68
vt 0.9976424 0.8740234
vt 0.8759766 0.8740234
vt 0.8759766 0.7523576
f 2/199/2 70/200/70 69/201/69
vt 0.8773576 0.7509766
vt 0.9990234 0.7509766
vt 0.9990234 0.8726424
f 2/202/2 71/203/71 70/204/70
vt 0.1226424 0.7490234
vt 0.0009766 0.7490234
vt 0.0009766 0.6273576
f 2/205/2 72/206/72 71/207/71
vt 0.0023576 0.6259766
vt 0.1240234 0.6259766
vt 0.1240234 0.7476424
f 2/208/2 73/209/73 72/210/72
vt 0.2476424 0.7490234
vt 0.1259766 0.7490234
vt 0.1259766 0.6273576
f 2/211/2 74/212/74 73/213/73
vt 0.2490234 0.7476424
vt 0.1273576 0.6259766
vt 0.2490234 0.6259766
f 2/214/2 39/215/39 74/216/74
vt 0.3726424 0.7490234
vt 0.2509766 0.7490234
vt 0.2509766 0.6273576
f 3/217/3 39/218/39 40/219/40
vt 0.0009766 0.3726424
vt 0.0009766 0.2523576
vt 0.0611189 0.3125000
f 3/220/3 40/221/40 4/222/4
vt 0.2523576 0.6259766
vt 0.3740234 0.6259766
vt 0.3740234 0.7476424
f 4/223/4 40/224/40 41/225/41
vt 0.1226424 0.3740234
vt 0.0023576 0.3740234
vt 0.0625000 0.3138810
f 4/226/4 41/227/41 5/228/5
vt 0.4976424 0.7490234
vt 0.3759766 0.7490234
vt 0.3759766 0.6273576
f 5/229/5 41/230/41 42/231/42
vt 0.1240234 0.2523576
vt 0.1240234 0.3726424
vt 0.0638811 0.3125000
f 5/232/5 42/233/42 6/234/6
vt 0.3773576 0.6259766
vt 0.4990234 0.6259766
vt 0.4990234 0.7476424
f 6/235/6 42/236/42 43/237/43
vt 0.5009766 0.6273576
vt 0.6226424 0.7490234
vt 0.5009766 0.7490234
f 6/238/6 43/239/43 7/240/7
vt 0.5023576 0.6259766
vt 0.6240234 0.6259766
vt 0.6240234 0.7476424
f 7/241/7 43/242/43 44/243/44
vt 0.0023576 0.2509766
vt 0.1226424 0.2509766
vt 0.0625000 0.3111190
f 7/244/7 44/245/44 8/246/8
vt 0.7476424 0.7490234
vt 0.6259766 0.7490234
vt 0.6259766 0.6273576
f 8/247/8 44/248/44 45/249/45
vt 0.7490234 0.7476424
vt 0.6273576 0.6259766
vt 0.7490234 0.6259766
f 8/250/8 45/251/45 9/252/9
vt 0.8726424 0.7490234
vt 0.7509766 0.7490234
vt 0.7509766 0.6273576
f 9/253/9 45/254/45 46/255/46
vt 0.1259766 0.3726424
vt 0.1259766 0.2523576
vt 0.1861189 0.3125000
f 9/256/9 46/257/46 10/258/10
vt 0.7523576 0.6259766
vt 0.8740234 0.6259766
vt 0.8740234 0.7476424
f 10/259/10 46/260/46 47/261/47
vt 0.2476424 0.3740234
vt 0.1273576 0.3740234
vt 0.1875000 0.3138810
f 10/262/10 47/263/47 11/264/11
vt 0.9976424 0.7490234
vt 0.8759766 0.7490234
vt 0.8759766 0.6273576
f 11/265/11 47/266/47 48/267/48
vt 0.2490234 0.2523576
vt 0.2490234 0.3726424
vt 0.1888811 0.3125000
f 11/268/11 48/269/48 12/270/12
vt 0.8773576 0.6259766
vt 0.9990234 0.6259766
vt 0.9990234 0.7476424
f 12/271/12 48/272/48 49/273/49
vt 0.1273576 0.2509766
vt 0.2476424 0.2509766
vt 0.1875000 0.3111190
f 12/274/12 49/275/49 13/276/13
vt 0.1226424 0.6240234
vt 0.0009766 0.6240234
vt 0.0009766 0.5023576
f 13/277/13 49/278/49 50/279/50
vt 0.2509766 0.3726424
vt 0.2509766 0.2523576
vt 0.3111189 0.3125000
f 13/280/13 50/281/50 14/282/14
vt 0.0023576 0.5009766
vt 0.1240234 0.5009766
vt 0.1240234 0.6226424
f 14/283/14 50/284/50 51/285/51
vt 0.3726424 0.3740234
vt 0.2523576 0.3740234
vt 0.3125000 0.3138810
f 14/286/14 51/287/51 15/288/15
vt 0.2476424 0.6240234
vt 0.1259766 0.6240234
vt 0.1259766 0.5023576
f 15/289/15 51/290/51 52/291/52
vt 0.2490234 0.6226424
vt 0.1273576 0.5009766
vt 0.2490234 0.5009766
f 15/292/15 52/293/52 16/294/16
vt 0.3726424 0.6240234
vt 0.2509766 0.6240234
vt 0.2509766 0.5023576
f 16/295/16 52/296/52 53/297/53
vt 0.3740234 0.2523576
vt 0.3740234 0.3726424
vt 0.3138811 0.3125000
f 16/298/16 53/299/53 17/300/17
vt 0.2523576 0.5009766
vt 0.3740234 0.5009766
vt 0.3740234 0.6226424
f 17/301/17 53/302/53 54/303/54
vt 0.3759766 0.5023576
vt 0.4976424 0.6240234
vt 0.3759766 0.6240234
f 17/304/17 54/305/54 18/306/18
vt 0.3773576 0.5009766
vt 0.4990234 0.5009766
vt 0.4990234 0.6226424
f 18/307/18 54/308/54 55/309/55
vt 0.2523576 0.2509766
vt 0.3726424 0.2509766
vt 0.3125000 0.3111190
f 18/310/18 55/311/55 19/312/19
vt 0.6226424 0.6240234
vt 0.5009766 0.6240234
vt 0.5009766 0.5023576
f 19/313/19 55/314/55 56/315/56
vt 0.3759766 0.3726424
vt 0.3759766 0.2523576
vt 0.4361189 0.3125000
f 19/316/19 56/317/56 20/318/20
vt 0.5023576 0.5009766
vt 0.6240234 0.5009766
vt 0.6240234 0.6226424
f 20/319/20 56/320/56 57/321/57
vt 0.4976424 0.3740234
vt 0.3773576 0.3740234
vt 0.4375000 0.3138810
f 20/322/20 57/323/57 21/324/21
vt 0.7476424 0.6240234
vt 0.6259766 0.6240234
vt 0.6259766 0.5023576
f 21/325/21 57/326/57 58/327/58
vt 0.4990234 0.2523576
vt 0.4990234 0.3726424
vt 0.4388811 0.3125000
f 21/328/21 58/329/58 22/330/22
vt 0.6273576 0.5009766
vt 0.7490234 0.5009766
vt 0.7490234 0.6226424
f 22/331/22 58/332/58 59/333/59
vt 0.3773576 0.2509766
vt 0.4976424 0.2509766
vt 0.4375000 0.3111190
f 22/334/22 59/335/59 23/336/23
vt 0.8726424 0.6240234
vt 0.7509766 0.6240234
vt 0.7509766 0.5023576
f 23/337/23 59/338/59 60/339/60
vt 0.5009766 0.3726424
vt 0.5009766 0.2523576
vt 0.5611190 0.3125000
f 23/340/23 60/341/60 24/342/24
vt 0.7523576 0.5009766
vt 0.8740234 0.5009766
vt 0.8740234 0.6226424
f 24/343/24 60/344/60 61/345/61
vt 0.8759766 0.5023576
vt 0.9976424 0.6240234
vt 0.8759766 0.6240234
f 24/346/24 61/347/61 25/348/25
vt 0.8773576 0.5009766
vt 0.9990234 0.5009766
vt 0.9990234 0.6226424
f 25/349/25 61/350/61 62/351/62
vt 0.6226424 0.3740234
vt 0.5023576 0.3740234
vt 0.5625000 0.3138810
f 25/352/25 62/353/62 26/354/26
vt 0.1226424 0.4990234
vt 0.0009766 0.4990234
vt 0.0009766 0.3773576
f 26/355/26 62/356/62 63/357/63
vt 0.1240234 0.4976424
vt 0.0023576 0.3759766
vt 0.1240234 0.3759766
f 26/358/26 63/359/63 27/360/27
vt 0.2476424 0.4990234
vt 0.1259766 0.4990234
vt 0.1259766 0.3773576
f 27/361/27 63/362/63 64/363/64
vt 0.6240234 0.2523576
vt 0.6240234 0.3726424
vt 0.5638810 0.3125000
f 27/364/27 64/365/64 28/366/28
vt 0.1273576 0.3759766
vt 0.2490234 0.3759766
vt 0.2490234 0.4976424
f 28/367/28 64/368/64 65/369/65
vt 0.5023576 0.2509766
vt 0.6226424 0.2509766
vt 0.5625000 0.3111190
f 28/370/28 65/371/65 29/372/29
vt 0.3726424 0.4990234
vt 0.2509766 0.4990234
vt 0.2509766 0.3773576
f 29/373/29 65/374/65 66/375/66
vt 0.6259766 0.3726424
vt 0.6259766 0.2523576
vt 0.6861190 0.3125000
f 29/376/29 66/377/66 30/378/30
vt 0.2523576 0.3759766
vt 0.3740234 0.3759766
vt 0.3740234 0.4976424
f 30/379/30 66/380/66 67/381/67
vt 0.7476424 0.3740234
vt 0.6273576 0.3740234
vt 0.6875000 0.3138810
f 30/382/30 67/383/67 31/384/31
vt 0.4976424 0.4990234
vt 0.3759766 0.4990234
vt 0.3759766 0.3773576
f 31/385/31 67/386/67 68/387/68
vt 0.7490234 0.2523576
vt 0.7490234 0.3726424
vt 0.6888810 0.3125000
f 31/388/31 68/389/68 32/390/32
vt 0.3773576 0.3759766
vt 0.4990234 0.3759766
vt 0.4990234 0.4976424
f 32/391/32 68/392/68 69/393/69
vt 0.6273576 0.2509766
vt 0.7476424 0.2509766
vt 0.6875000 0.3111190
f 32/394/32 69/395/69 33/396/33
vt 0.6226424 0.4990234
vt 0.5009766 0.4990234
vt 0.5009766 0.3773576
f 33/397/33 69/398/69 70/399/70
vt 0.6240234 0.4976424
vt 0.5023576 0.3759766
vt 0.6240234 0.3759766
f 33/400/33 70/401/70 34/402/34
vt 0.7476424 0.4990234
vt 0.6259766 0.4990234
vt 0.6259766 0.3773576
f 34/403/34 70/404/70 71/405/71
vt 0.7509766 0.3726424
vt 0.7509766 0.2523576
vt 0.8111190 0.3125000
f 34/406/34 71/407/71 35/408/35
vt 0.6273576 0.3759766
vt 0.7490234 0.3759766
vt 0.7490234 0.4976424
f 35/409/35 71/410/71 72/411/72
vt 0.7509766 0.3773576
vt 0.8726424 0.4990234
vt 0.7509766 0.4990234
f 35/412/35 72/413/72 36/414/36
vt 0.7523576 0.3759766
vt 0.8740234 0.3759766
vt 0.8740234 0.4976424
f 36/415/36 72/416/72 73/417/73
vt 0.8726424 0.3740234
vt 0.7523576 0.3740234
vt 0.8125000 0.3138810
f 36/418/36 73/419/73 37/420/37
vt 0.9976424 0.4990234
vt 0.8759766 0.4990234
vt 0.8759766 0.3773576
f 37/421/37 73/422/73 74/423/74
vt 0.8740234 0.2523576
vt 0.8740234 0.3726424
vt 0.8138810 0.3125000
f 37/424/37 74/425/74 38/426/38
vt 0.8773576 0.3759766
vt 0.9990234 0.3759766
vt 0.9990234 0.4976424
f 38/427/38 74/428/74 39/429/39
vt 0.7523576 0.2509766
vt 0.8726424 0.2509766
vt 0.8125000 0.3111190
f 38/430/38 39/431/39 3/432/3
# 144 faces, 432 coords texture

# End of File
